<?xml version="1.0" encoding="UTF-8"?>
<svg display="block" fill="currentcolor" style="height:24px;width:24px" aria-hidden="true" focusable="false" role="presentation" viewBox="0 0 32 32" xmlns="http://www.w3.org/2000/svg">
<path d="m24.333 1.6668c1.0544 0 1.9182 0.81587 1.9945 1.8507l0.0054857 0.14926-6.5e-4 24.666 3.0006 7.5e-4v2h-26.667v-2l3-7.5e-4v-24.666c0-1.0544 0.81587-1.9182 1.8507-1.9945l0.14926-0.0054857zm-4.0006 2h-12.666l-7.5e-4 24.666 12.667-2.5e-4zm4.0006 0h-2.0006v24.666l2.0002 2.5e-4zm-7.0001 11c0.73638 0 1.3333 0.59695 1.3333 1.3333s-0.59695 1.3333-1.3333 1.3333-1.3333-0.59695-1.3333-1.3333 0.59695-1.3333 1.3333-1.3333z"/>
</svg>
