<?xml version="1.0" encoding="UTF-8"?>
<svg display="block" fill="currentcolor" style="height:24px;width:24px" aria-hidden="true" focusable="false" role="presentation" viewBox="0 0 32 32" xmlns="http://www.w3.org/2000/svg">
<path d="m11.667 0-9.5e-4 1.666h8.667l5.5e-4 -1.666h2l-5.5e-4 1.666 6.0006 6.3e-4c1.0544 0 1.9182 0.81587 1.9945 1.8507l0.0054857 0.14926v15.919c0 0.47157-0.16644 0.92587-0.4669 1.2845l-0.11889 0.12983-8.7477 8.7477c-0.33343 0.33325-0.77231 0.53676-1.2382 0.57786l-0.17582 0.0077398h-12.919c-2.6887 0-4.8818-2.1223-4.9954-4.7831l-0.0046195-0.21689v-21.667c0-1.0544 0.81588-1.9182 1.8507-1.9945l0.14926-0.0054857 5.999-6.3e-4 9.5e-4 -1.666zm16.666 11.666h-24.666v13.667c0 1.5977 1.2489 2.9037 2.8237 2.9949l0.17627 0.0050928 10.999-3e-4 9.5e-4 -5.6664c0-2.6887 2.1224-4.8818 4.7832-4.9954l0.21689-0.0046196 5.666-6e-4zm-0.081 8-5.585 6e-4c-1.5977 0-2.9038 1.2489-2.995 2.8237l-0.0050929 0.17627-9.5e-4 5.5864zm-18.586-16-5.999 6.2e-4v5.9994h24.666l6.5e-4 -5.9994-6.0006-6.2e-4 5.5e-4 1.6673h-2l-5.5e-4 -1.6673h-8.667l9.5e-4 1.6673h-2z"/>
</svg>
