<?xml version="1.0" encoding="UTF-8"?>
<svg display="block" fill="currentcolor" style="height:20px;width:20px" aria-hidden="true" focusable="false" role="presentation" viewBox="0 0 24 24" xmlns="http://www.w3.org/2000/svg">
<path d="m13.3 2.1a5.1 5.1 0 0 1 3.8-2.1 5.1 5.1 0 0 1-1.2 3.8 4.1 4.1 0 0 1-3.6 1.7 4.5 4.5 0 0 1 1-3.4zm-5 3.7c-2.8 0-5.8 2.5-5.8 7.3 0 4.9 3.5 10.9 6.3 10.9 1 0 2.5-1 4-1s2.6 0.9 4 0.9c3.1 0 5.3-6.4 5.3-6.4a5.3 5.3 0 0 1-3.2-4.9 5.2 5.2 0 0 1 2.6-4.5 5.4 5.4 0 0 0-4.7-2.4c-2 0-3.5 1.1-4.3 1.1-0.9 0-2.4-1-4.2-1z"/>
</svg>
