<?xml version="1.0" encoding="UTF-8"?>
<svg display="block" fill="rgb(227, 28, 95)" stroke="currentcolor" style="height:48px;width:48px" aria-hidden="true" focusable="false" role="presentation" viewBox="0 0 48 48" xmlns="http://www.w3.org/2000/svg">
<g stroke="none">
<path d="M24 9C14.946 9 7.125 15.065 4.74 23.591L4.63 24l.013.054c2.235 8.596 9.968 14.78 18.99 14.943L24 39c9.053 0 16.875-6.064 19.26-14.59l.11-.411-.013-.052c-2.234-8.597-9.968-14.78-18.99-14.944L24 9z" fill-opacity=".2"/>
<path d="M24 5c11.18 0 20.794 7.705 23.346 18.413l.133.587-.133.587C44.794 35.295 35.181 43 24 43 12.82 43 3.206 35.295.654 24.588l-.133-.587.048-.216C2.985 12.884 12.69 5 24 5zm0 2C13.88 7 5.16 13.887 2.691 23.509l-.12.492.032.14c2.288 9.564 10.728 16.513 20.65 16.846l.377.01L24 41c10.243 0 19.052-7.056 21.397-16.861l.031-.14-.031-.138c-2.288-9.566-10.728-16.515-20.65-16.848l-.377-.01L24 7zm0 10a7 7 0 1 1 0 14 7 7 0 0 1 0-14zm0 2a5 5 0 1 0 0 10 5 5 0 0 0 0-10z"/>
</g>
</svg>
