<?xml version="1.0" encoding="UTF-8"?>
<svg display="block" fill="rgb(227, 28, 95)" stroke="currentcolor" style="height:48px;width:48px" aria-hidden="true" focusable="false" role="presentation" viewBox="0 0 48 48" xmlns="http://www.w3.org/2000/svg">
<g stroke="none">
<path d="m39 15.999v28.001h-30v-28.001z" fill-opacity=".2"/>
<path d="m24 0c5.4292 0 9.8479 4.3267 9.9962 9.7201l0.0038418 0.2799v2h7c1.0544 0 1.9182 0.81588 1.9945 1.8507l0.0054857 0.14926v32c0 1.0544-0.81588 1.9182-1.8507 1.9945l-0.14926 0.0054857h-34c-1.0544 0-1.9182-0.81588-1.9945-1.8507l-0.0054857-0.14926v-32c0-1.0544 0.81588-1.9182 1.8507-1.9945l0.14926-0.0054857h7v-2c0-5.5228 4.4772-10 10-10zm17 14h-34v32h34zm-17 14c1.6569 0 3 1.3431 3 3s-1.3431 3-3 3-3-1.3431-3-3 1.3431-3 3-3zm0 2c-0.55228 0-1 0.44772-1 1s0.44772 1 1 1 1-0.44772 1-1-0.44772-1-1-1zm0-28c-4.3349 0-7.8645 3.4478-7.9962 7.7508l-0.0038068 0.24918v2h16v-2c0-4.4183-3.5817-8-8-8z"/>
</g>
</svg>
