<?xml version="1.0" encoding="UTF-8"?>
<svg display="block" fill="rgb(227, 28, 95)" stroke="currentcolor" style="height:48px;width:48px" aria-hidden="true" focusable="false" role="presentation" viewBox="0 0 48 48" xmlns="http://www.w3.org/2000/svg">
<g stroke="none">
<path d="M27 5l.585.005c4.29.076 8.837.984 13.645 2.737l.77.288V35.4l-.008.13a1 1 0 0 1-.47.724l-.116.06L27 42.716V25a1 1 0 0 0-.883-.993L26 24H12V8.029l.77-.286c4.797-1.75 9.336-2.658 13.62-2.737L27 5z" fill-opacity=".2"/>
<path d="M27 1c5.599 0 11.518 1.275 17.755 3.816a2 2 0 0 1 1.239 1.691L46 6.67V35.4a5 5 0 0 1-2.764 4.472l-.205.097-15.594 6.93L27 47l-2.461-1h2.451a.01.01 0 0 0 .007-.003L27 45.99v-1.085l15.218-6.763a3 3 0 0 0 1.757-2.351l.019-.194.006-.196V6.669l-.692-.278C37.557 4.128 32.121 3 27 3S16.443 4.128 10.692 6.391L10 6.67 9.999 24H8V6.669a2 2 0 0 1 1.098-1.786l.147-.067C15.483 2.275 21.401 1 27 1z"/>
</g>
<g fill="none" stroke-width="2">
<path d="M4 24h22a1 1 0 0 1 1 1v20.99a.01.01 0 0 1-.01.01H4a1 1 0 0 1-1-1V25a1 1 0 0 1 1-1z"/>
<path d="m21 25v-5a6 6 0 1 0-12 0v5"/>
<circle cx="15" cy="35" r="2"/>
</g>
</svg>
