<?xml version="1.0" encoding="UTF-8"?>
<svg display="block" viewBox="0 0 30 32" style="color:#FF385C;" xmlns="http://www.w3.org/2000/svg">
<path d="m29.386 22.71c-0.1435-0.4028-0.3112-0.7925-0.4707-1.1536-0.2456-0.5554-0.5028-1.1119-0.7516-1.6498l-0.0197-0.0427c-2.2189-4.8051-4.6005-9.6759-7.0785-14.477l-0.1052-0.20385c-0.2528-0.49027-0.5141-0.9972-0.7823-1.4953-0.318-0.63036-0.7039-1.2243-1.1508-1.7712-0.5031-0.60017-1.132-1.0829-1.8423-1.414s-1.4848-0.50275-2.2688-0.50265c-0.784 9.8438e-5 -1.5584 0.17188-2.2687 0.50322-0.7102 0.33135-1.339 0.8142-1.8419 1.4145-0.4464 0.54705-0.83207 1.1408-1.1502 1.7709-0.27051 0.50257-0.53427 1.0142-0.78932 1.509l-0.09768 0.18939c-2.4781 4.8014-4.8597 9.6722-7.0786 14.477l-0.03233 0.0699c-0.24448 0.5292-0.49725 1.0764-0.73875 1.6225-0.15958 0.3608-0.32706 0.7502-0.47072 1.154-0.41145 1.1001-0.54256 2.285-0.38155 3.4482 0.17075 1.1755 0.6462 2.2862 1.3793 3.2219 0.73305 0.9357 1.6983 1.664 2.8001 2.1128 0.83221 0.3367 1.722 0.5088 2.62 0.5068 0.28208-1e-4 0.56392-0.0165 0.84411-0.0491 1.1357-0.1447 2.2311-0.5143 3.2218-1.087 1.2996-0.7301 2.5831-1.8001 3.9852-3.3291 1.4021 1.529 2.6856 2.599 3.9852 3.3291 0.9907 0.5728 2.0861 0.9423 3.2218 1.087 0.2802 0.0326 0.5621 0.049 0.8442 0.0491 0.8979 2e-3 1.7876-0.1701 2.6198-0.5068 1.1018-0.4488 2.0671-1.1771 2.8002-2.1128s1.2086-2.0463 1.3794-3.2219c0.1608-1.1633 0.0297-2.3482-0.3815-3.4484zm-14.469 1.6669c-1.7357-2.2001-2.8495-4.2432-3.2403-5.956-0.1601-0.6418-0.1979-1.3079-0.1114-1.9637 0.0683-0.4807 0.2449-0.9397 0.5165-1.3425 0.3342-0.4334 0.7637-0.7844 1.2553-1.0259 0.4916-0.2414 1.0322-0.367 1.5801-0.367 0.548 1e-4 1.0885 0.1257 1.5801 0.3673 0.4916 0.2415 0.921 0.5925 1.2552 1.0259 0.2716 0.403 0.4482 0.862 0.5165 1.3428 0.0863 0.6561 0.0484 1.3224-0.112 1.9644-0.3912 1.7126-1.5047 3.7551-3.24 5.9547zm12.823 1.4919c-0.1194 0.8219-0.4519 1.5985-0.9644 2.2527-0.5126 0.6543-1.1875 1.1636-1.9579 1.4774-0.779 0.3121-1.6244 0.4227-2.4576 0.3215-0.8661-0.1116-1.7008-0.3966-2.4538-0.8381-1.1568-0.6499-2.3278-1.6476-3.6455-3.1112 2.0977-2.5866 3.4076-4.9707 3.8926-7.0942 0.2183-0.893 0.2656-1.8191 0.1395-2.7295-0.1144-0.7843-0.4056-1.5325-0.8516-2.1882-0.5225-0.7074-1.2041-1.2825-1.9899-1.6788-0.7859-0.3963-1.654-0.6028-2.5345-0.6028-0.8804 0-1.7486 0.2064-2.5345 0.6026s-1.4675 0.9712-1.99 1.6786c-0.44593 0.6555-0.73709 1.4035-0.8516 2.1876-0.12616 0.9101-0.0791 1.8357 0.13871 2.7284 0.48469 2.1244 1.7947 4.5091 3.8931 7.0965-1.3177 1.4634-2.4887 2.4611-3.6455 3.1111-0.75301 0.4414-1.5876 0.7265-2.4537 0.838-0.8333 0.1012-1.6787-0.0094-2.4578-0.3215-0.77039-0.3138-1.4453-0.8231-1.9578-1.4773-0.51253-0.6543-0.84493-1.4309-0.96427-2.2528-0.11479-0.8355-0.0171-1.6864 0.28407-2.4743 0.11448-0.3218 0.24845-0.6376 0.41442-1.0128 0.2348-0.5308 0.48397-1.0703 0.72499-1.592l0.03237-0.0701c2.2065-4.7778 4.5748-9.6215 7.0394-14.397l0.0981-0.19011c0.2509-0.48682 0.5104-0.99016 0.7722-1.4765 0.2504-0.50129 0.5535-0.97459 0.9042-1.4119 0.3107-0.37537 0.7007-0.67759 1.142-0.88506 0.4414-0.20748 0.9232-0.31508 1.411-0.31512s0.9697 0.10749 1.411 0.31489c0.4414 0.2074 0.8314 0.50956 1.1422 0.88488 0.3509 0.43698 0.6541 0.91012 0.9043 1.4114 0.2594 0.48204 0.5166 0.98085 0.7654 1.4632l0.1054 0.20457c2.4645 4.7748 4.8328 9.6184 7.0395 14.397l0.0199 0.043c0.2452 0.5305 0.4987 1.0788 0.7374 1.6189 0.1662 0.3757 0.3004 0.6918 0.4146 1.0124 0.301 0.788 0.3987 1.6389 0.284 2.4745z" fill="currentcolor"/>
</svg>
