<?xml version="1.0" encoding="UTF-8"?>
<svg display="block" fill="currentcolor" style="height:16px;width:16px" aria-hidden="true" focusable="false" role="presentation" viewBox="0 0 12 12" xmlns="http://www.w3.org/2000/svg">
<path d="m6 0c3.3137 0 6 2.6863 6 6s-2.6863 6-6 6-6-2.6863-6-6 2.6863-6 6-6zm0 1c-2.7614 0-5 2.2386-5 5s2.2386 5 5 5 5-2.2386 5-5-2.2386-5-5-5zm-1.2137 3.5654 2.0613 0.063942-0.56371 1.8027-0.40378 1.3638c-0.060457 0.19791-0.11762 0.37225-0.17456 0.51873l-0.056984 0.13703 1.3231-0.52022-0.21132 0.80642-0.20588 0.12754-0.26798 0.15346-0.15094 0.08107c-0.11437 0.059966-0.2253 0.11438-0.33132 0.16193-0.29087 0.13048-0.53031 0.20355-0.70448 0.20355-0.2812 0-0.50584-0.19835-0.50584-0.46657 0-0.03626 0.0035319-0.081629 0.010444-0.1357l0.012886-0.087591 0.040531-0.21314 0.059455-0.26174 0.077472-0.30791 0.14801-0.54313 0.18305-0.63161 0.13487-0.44126 0.13786-0.4196 0.10856-0.29887c0.03556-0.09215 0.070329-0.17593 0.10381-0.24864l0.0492-0.10043-1.093-0.062832 0.17094-0.64379zm2.5983-2.0769 0.047974 0.064088-0.39767 1.2268-1.1349-0.064088 0.39767-1.2268z"/>
</svg>
