<?xml version="1.0" standalone="no"?>
<!DOCTYPE svg PUBLIC "-//W3C//DTD SVG 20010904//EN"
 "http://www.w3.org/TR/2001/REC-SVG-20010904/DTD/svg10.dtd">
<svg version="1.0" xmlns="http://www.w3.org/2000/svg"
 width="2000.000000pt" height="675.000000pt" viewBox="0 0 2000.000000 675.000000"
 preserveAspectRatio="xMidYMid meet">

<g transform="translate(0.000000,675.000000) scale(0.100000,-0.100000)"
fill="#000000" stroke="none">
<path d="M2265 4730 c-102 -14 -187 -40 -265 -81 -139 -72 -211 -141 -342
-329 -29 -41 -57 -75 -63 -75 -6 0 -19 88 -30 205 l-20 205 -92 3 c-272 8
-508 -168 -565 -423 -10 -48 -13 -249 -13 -985 0 -915 0 -925 21 -960 47 -81
119 -97 269 -60 246 61 435 233 488 445 19 75 26 175 37 595 8 293 11 343 29
401 27 87 88 178 152 229 117 92 186 110 437 110 l182 0 0 334 c0 333 0 335
-23 361 -18 22 -32 27 -82 30 -33 2 -87 0 -120 -5z"/>
<path d="M7210 4734 c-200 -18 -426 -71 -568 -132 -148 -64 -254 -135 -373
-252 -191 -188 -301 -396 -355 -676 -23 -120 -24 -356 0 -484 49 -273 178
-515 372 -700 189 -180 444 -293 741 -329 119 -15 395 -15 497 -1 184 26 370
90 520 178 170 101 347 276 446 443 154 259 205 631 134 977 -63 310 -236 561
-519 752 -145 98 -335 174 -509 205 -91 15 -305 26 -386 19z m191 -553 c110
-18 211 -87 274 -186 45 -70 102 -217 127 -327 25 -110 30 -328 10 -423 -81
-377 -259 -565 -538 -565 -144 0 -260 53 -362 164 -243 266 -235 926 15 1196
91 99 151 127 298 139 50 5 97 9 105 9 8 1 40 -2 71 -7z"/>
<path d="M18097 4729 c-83 -11 -206 -51 -267 -86 -121 -70 -194 -142 -310
-306 -74 -105 -92 -110 -102 -27 -3 30 -6 102 -7 160 -1 137 -12 175 -53 189
-101 35 -294 -19 -425 -120 -95 -74 -166 -188 -192 -307 -8 -37 -11 -328 -11
-980 l0 -927 23 -39 c49 -86 108 -99 262 -57 210 57 367 176 445 336 52 106
61 160 71 440 25 693 22 657 59 731 37 76 119 162 201 211 86 51 150 63 340
63 146 0 170 2 189 18 22 18 22 19 21 337 l-1 319 -24 24 c-28 29 -109 36
-219 21z"/>
<path d="M3905 4715 c-630 -101 -1006 -438 -1125 -1007 -67 -323 -40 -599 84
-853 68 -139 150 -249 270 -361 196 -185 441 -297 730 -335 120 -15 464 -7
579 15 363 68 656 256 857 551 218 322 270 768 135 1172 -64 193 -145 322
-285 457 -175 169 -414 292 -680 351 -105 24 -443 29 -565 10z m348 -540 c146
-31 251 -116 317 -260 44 -94 61 -159 91 -352 22 -141 22 -145 5 -270 -53
-397 -242 -613 -535 -613 -152 0 -257 44 -352 148 -112 122 -186 313 -196 507
-9 175 44 448 114 595 99 206 307 298 556 245z"/>
<path d="M10486 4714 c-196 -44 -330 -119 -488 -273 -60 -57 -108 -102 -109
-100 -1 2 -11 74 -23 159 l-21 155 -88 3 c-272 9 -487 -159 -557 -434 -19 -74
-20 -114 -20 -985 l0 -908 31 -36 c18 -20 51 -47 76 -61 52 -31 87 -28 225 16
220 70 352 191 422 390 l31 85 6 515 c5 487 6 518 26 577 39 118 126 222 221
266 41 19 65 22 177 22 111 0 137 -3 176 -21 90 -42 153 -133 195 -284 16 -59
19 -130 24 -775 5 -685 6 -711 25 -743 23 -38 87 -72 136 -72 57 0 178 38 279
88 129 63 221 153 278 273 73 153 75 171 82 734 5 492 6 501 28 558 46 113
139 204 241 233 65 20 208 22 270 5 100 -28 169 -101 216 -226 35 -92 43 -199
54 -720 9 -403 9 -411 35 -492 81 -250 340 -445 594 -446 71 -1 103 17 137 74
19 32 19 56 19 773 0 775 -4 865 -45 1024 -76 295 -301 529 -590 613 -111 32
-331 38 -459 11 -200 -41 -347 -121 -507 -274 -123 -118 -133 -120 -195 -46
-93 111 -125 141 -202 193 -87 57 -165 93 -261 120 -87 24 -348 30 -439 9z"/>
<path d="M14867 4720 c-187 -23 -331 -66 -480 -142 -232 -119 -432 -324 -547
-562 -59 -122 -82 -189 -111 -326 -29 -137 -31 -394 -5 -545 95 -542 446 -863
1066 -977 94 -17 156 -21 340 -22 134 0 263 5 320 13 146 20 359 60 419 79 71
22 130 75 138 124 12 78 -85 211 -203 278 -90 52 -177 68 -441 80 -232 10
-440 30 -532 51 -186 42 -312 179 -337 368 l-7 51 822 0 c894 0 873 -1 887 55
3 13 4 138 1 277 -4 230 -6 262 -30 354 -30 116 -54 181 -104 279 -141 278
-416 478 -753 551 -88 18 -343 27 -443 14z m226 -505 c209 -44 339 -185 362
-392 6 -53 5 -62 -16 -86 l-24 -27 -457 -7 c-528 -7 -479 -18 -459 105 31 202
181 365 374 407 82 18 137 18 220 0z"/>
<path d="M18350 2594 c0 -189 4 -333 10 -343 21 -41 59 -45 397 -46 379 0 359
-6 357 104 -5 233 -182 469 -426 565 -88 34 -152 46 -254 46 l-84 0 0 -326z"/>
</g>
</svg>
