<?xml version="1.0" encoding="UTF-8"?>
<svg display="block" fill="currentcolor" style="height:32px;width:32px" aria-hidden="true" focusable="false" role="presentation" viewBox="0 0 32 32" xmlns="http://www.w3.org/2000/svg">
<path d="m28 2c1.0544 0 1.9182 0.81588 1.9945 1.8507l0.0054857 0.14926v24c0 1.0544-0.81588 1.9182-1.8507 1.9945l-0.14926 0.0054857h-24c-1.0544 0-1.9182-0.81588-1.9945-1.8507l-0.0054857-0.14926v-24c0-1.0544 0.81588-1.9182 1.8507-1.9945l0.14926-0.0054857zm-14.415 15h-9.585v11h11v-9.586l-4.2929 4.2931-1.4142-1.4142zm14.415 0h-9.585l4.2921 4.2929-1.4142 1.4142-4.2929-4.2931v9.586h11zm-13-13h-11v11l3.5358 0.0011092c-0.34074-0.5886-0.53577-1.2721-0.53577-2.0011 0-2.2091 1.7909-4 4-4 1.0347 0 1.9884 0.35717 2.816 1.1593 0.29404 0.285 0.68177 0.85494 1.1839 1.7366zm6 7c-0.53279 0-0.9841 0.16902-1.424 0.59538-0.20603 0.1997-0.62469 0.87669-1.2206 1.9851l-0.24774 0.46628-0.49266 0.95319h3.385c1.0016 0 1.8313-0.73633 1.9772-1.6972l0.017284-0.15351 0.0054857-0.14926c0-1.1046-0.89543-2-2-2zm7-7h-11l7.292e-4 7.8949c0.50183-0.88109 0.88939-1.4507 1.1833-1.7356 0.82753-0.80211 1.7813-1.1593 2.816-1.1593 2.2091 0 4 1.7909 4 4 0 0.72903-0.19503 1.4125-0.53577 2.0011l3.5358-0.0011092zm-17 7c-1.1046 0-2 0.89543-2 2l0.0054857 0.14926c0.076349 1.0349 0.94015 1.8507 1.9945 1.8507h3.385l-0.49266-0.95319-0.36455-0.68221c-0.53399-0.98067-0.91151-1.5828-1.1038-1.7692-0.43988-0.42637-0.89119-0.59538-1.424-0.59538z"/>
</svg>
