<?xml version="1.0" encoding="UTF-8"?>
<svg display="block" fill="currentcolor" style="height:24px;width:24px" aria-hidden="true" focusable="false" role="presentation" viewBox="0 0 32 32" xmlns="http://www.w3.org/2000/svg">
<path d="m28 13c1.1046 0 2 0.89543 2 2v13c0 1.1046-0.89543 2-2 2h-9c-1.1046 0-2-0.89543-2-2v-13c0-1.1046 0.89543-2 2-2zm-15 8c1.1046 0 2 0.89543 2 2v5c0 1.1046-0.89543 2-2 2h-9c-1.1046 0-2-0.89543-2-2v-5c0-1.1046 0.89543-2 2-2zm15-6h-9v13h9zm-15 8h-9v5h9zm0-21c1.1046 0 2 0.89543 2 2v13c0 1.1046-0.89543 2-2 2h-9c-1.1046 0-2-0.89543-2-2v-13c0-1.1046 0.89543-2 2-2zm0 2h-9v13h9zm15-2c1.1046 0 2 0.89543 2 2v5c0 1.1046-0.89543 2-2 2h-9c-1.1046 0-2-0.89543-2-2v-5c0-1.1046 0.89543-2 2-2zm0 2h-9v5h9z"/>
</svg>
