<?xml version="1.0" encoding="UTF-8"?>
<svg display="block" fill="currentcolor" style="height:32px;width:32px" aria-hidden="true" focusable="false" role="presentation" viewBox="0 0 32 32" xmlns="http://www.w3.org/2000/svg">
<path d="m24 31a7 7 0 0 0 0-14h-16a7 7 0 0 0 0 14zm5-7a5 5 0 1 1-5-5 5.0059 5.0059 0 0 1 5 5zm-26 0a5.0059 5.0059 0 0 1 5-5h11.111a6.9775 6.9775 0 0 0 0 10h-11.111a5.0059 5.0059 0 0 1-5-5zm21-23h-16a7 7 0 0 0 0 14h16a7 7 0 0 0 0-14zm-21 7a5 5 0 1 1 5 5 5.0059 5.0059 0 0 1-5-5zm21 5h-11.11a6.9784 6.9784 0 0 0 0-10h11.11a5 5 0 0 1 0 10z"/>
</svg>
