<?xml version="1.0" encoding="UTF-8"?>
<svg display="block" fill="currentcolor" style="height:24px;width:24px" aria-hidden="true" focusable="false" role="presentation" viewBox="0 0 32 32" xmlns="http://www.w3.org/2000/svg">
<path d="m16 1a15 15 0 1 0 15 15 15.017 15.017 0 0 0-15-15zm0 28a13 13 0 1 1 13-13 13.015 13.015 0 0 1-13 13zm1.5-5.5a1.5 1.5 0 1 1-1.5-1.5 1.5 1.5 0 0 1 1.5 1.5zm4.0791-11.5c0 2.5283-1.6934 4.5776-4.5723 5.5898l-0.00684 2.4131-2-0.00586 0.01025-3.9072 0.73487-0.20068c1.1528-0.31445 3.834-1.3232 3.834-3.8892a3.189 3.189 0 0 0-3.4478-3.1685 3.6753 3.6753 0 0 0-3.5352 2.7207l-1.9228-0.55079a5.6591 5.6591 0 0 1 5.458-4.1699 5.1969 5.1969 0 0 1 5.4477 5.1685z"/>
</svg>
