<?xml version="1.0" encoding="UTF-8"?>
<svg display="block" fill="currentcolor" style="height:32px;width:32px" aria-hidden="true" focusable="false" role="presentation" viewBox="0 0 32 32" xmlns="http://www.w3.org/2000/svg">
<path d="M30.82812,3.72656A2.00276,2.00276,0,0,0,28.1875,2.71143L11.78772,10H7a5.99987,5.99987,0,0,0-.25928,11.99414L11,21.99811V29h2V22.53833l15.18848,6.75073A2.0003,2.0003,0,0,0,31,27.46094V4.53857A2.01958,2.01958,0,0,0,30.82812,3.72656ZM6.81641,19.99609A4.00016,4.00016,0,0,1,7,12h4v8H7.02246ZM29,27.46094,13,20.35059V11.6499L29,4.53857Z"/>
</svg>
