<?xml version="1.0" encoding="UTF-8"?>
<svg display="block" fill="currentcolor" style="height:32px;width:32px" aria-hidden="true" focusable="false" role="presentation" viewBox="0 0 32 32" xmlns="http://www.w3.org/2000/svg">
<path d="M25 4a2 2 0 0 1 1.995 1.85L27 6v2h2.04c1.042 0 1.88.824 1.955 1.852L31 10v16c0 1.046-.791 1.917-1.813 1.994L29.04 28H6.96c-1.042 0-1.88-.824-1.955-1.852L5 26v-2H3a2 2 0 0 1-1.995-1.85L1 22V6a2 2 0 0 1 1.85-1.995L3 4zm2 18a2 2 0 0 1-1.85 1.995L25 24H7v2h22V10h-2zM25 6H3v16h22zm-3 12a1 1 0 1 1 0 2 1 1 0 0 1 0-2zm-8-8a4 4 0 1 1 0 8 4 4 0 0 1 0-8zm0 2a2 2 0 1 0 0 4 2 2 0 0 0 0-4zM6 8a1 1 0 1 1 0 2 1 1 0 0 1 0-2z"/>
</svg>
