<?xml version="1.0" encoding="UTF-8"?>
<svg display="block" fill="currentcolor" style="height:32px;width:32px" aria-hidden="true" focusable="false" role="presentation" viewBox="0 0 32 32" xmlns="http://www.w3.org/2000/svg">
<path d="m16 27a15.575 15.575 0 0 1-14.518-10.058l-0.10986-0.29389 0.13281-0.52051a15.004 15.004 0 0 1 28.987-0.01123l0.13476 0.53272-0.10937 0.293a15.577 15.577 0 0 1-14.518 10.058zm-12.532-10.47a13.506 13.506 0 0 0 25.064-1e-3 13.005 13.005 0 0 0-25.064 1e-3zm12.532 4.4697a5 5 0 1 1 5-5 5.0059 5.0059 0 0 1-5 5zm0-8a3 3 0 1 0 3 3 3.0033 3.0033 0 0 0-3-3z"/>
</svg>
