<?xml version="1.0" encoding="UTF-8"?>
<svg display="block" fill="currentcolor" style="height:32px;width:32px" aria-hidden="true" focusable="false" role="presentation" viewBox="0 0 32 32" xmlns="http://www.w3.org/2000/svg">
<path d="M16 .798l.555.37C20.398 3.73 24.208 5 28 5h1v12.5C29 25.574 23.21 31 16 31S3 25.574 3 17.5V5h1c3.792 0 7.602-1.27 11.445-3.832L16 .798zm-1 3.005c-3.2 1.866-6.418 2.92-9.648 3.149L5 6.972V17.5c0 6.558 4.347 10.991 10 11.459zm2 0V28.96c5.654-.468 10-4.901 10-11.459V6.972l-.352-.02c-3.23-.23-6.448-1.282-9.647-3.148z"/>
</svg>
