<?xml version="1.0" encoding="UTF-8"?>
<svg display="block" fill="currentcolor" style="height:32px;width:32px" aria-hidden="true" focusable="false" role="presentation" viewBox="0 0 32 32" xmlns="http://www.w3.org/2000/svg">
<path d="m27 5h-4a2.0023 2.0023 0 0 0-2 2v4h-4v-8a2.002 2.002 0 0 0-2-2h-4a2.002 2.002 0 0 0-2 2v8h-4a2.002 2.002 0 0 0-2 2v16a2.0023 2.0023 0 0 0 2 2h22a2.0026 2.0026 0 0 0 2-2v-22a2.0023 2.0023 0 0 0-2-2zm-18 24h-4l-0.00146-16h4.0015zm6 0h-4v-16l-9.2e-4 -0.00891-5.4e-4 -9.9911h4.0015zm6 0h-4v-16h4zm6 0h-4v-16l-7.3e-4 -7e-3 -2.7e-4 -5.993h4.001z"/>
</svg>
