<?xml version="1.0" encoding="UTF-8"?>
<svg display="block" fill="currentcolor" style="height:24px;width:24px" aria-hidden="true" focusable="false" role="presentation" viewBox="0 0 32 32" xmlns="http://www.w3.org/2000/svg">
<path d="m16 1c8.2843 0 15 6.7157 15 15 0 8.2843-6.7157 15-15 15-8.2843 0-15-6.7157-15-15 0-8.2843 6.7157-15 15-15zm0 8c-2.7614 0-5 2.2386-5 5 0 2.0144 1.2022 3.7999 2.9996 4.5835l3.231e-4 2.0985-0.14999 0.027845c-2.8326 0.56131-5.319 2.223-6.9358 4.5873 2.3434 2.2911 5.5497 3.7029 9.0858 3.7029 3.5356 0 6.7415-1.4114 9.085-3.7015-1.6142-2.3629-4.0978-4.0248-6.9292-4.5868l-0.15588-0.02873 0.001228-2.0991c1.7288-0.75475 2.9067-2.4358 2.9936-4.3555l0.0051645-0.22838c0-2.7614-2.2386-5-5-5zm0-6c-7.1797 0-13 5.8203-13 13 0 2.9046 0.95257 5.5867 2.5624 7.7509 1.4207-1.9135 3.3395-3.4002 5.5386-4.2956l0.34803-0.13632-0.022956-0.018971c-1.437-1.2411-2.3446-3.0456-2.4208-5.0286l-0.0052099-0.27148c0-3.866 3.134-7 7-7s7 3.134 7 7c0 1.9941-0.84151 3.828-2.2246 5.1194l-0.22543 0.20063 0.044779 0.016314c2.3268 0.87922 4.3571 2.4139 5.8431 4.4128 1.6099-2.1632 2.5622-4.845 2.5622-7.7491 0-7.1797-5.8203-13-13-13z"/>
</svg>
