<?xml version="1.0" encoding="UTF-8"?>
<svg display="block" fill="currentcolor" style="height:32px;width:32px" aria-hidden="true" focusable="false" role="presentation" viewBox="0 0 32 32" xmlns="http://www.w3.org/2000/svg">
<path d="m29 5c1.0544 0 1.9182 0.81588 1.9945 1.8507l0.0054857 0.14926v18c0 1.0544-0.81588 1.9182-1.8507 1.9945l-0.14926 0.0054857h-26c-1.0544 0-1.9182-0.81588-1.9945-1.8507l-0.0054857-0.14926v-18c0-1.0544 0.81588-1.9182 1.8507-1.9945l0.14926-0.0054857zm0 2h-26v18h26zm-3 12v2h-8v-2zm-16-8c1.6569 0 3 1.3431 3 3 0 0.61679-0.18613 1.1901-0.50529 1.6668 1.4972 0.86249 2.5053 2.4801 2.5053 4.3332h-2c0-1.3059-0.83438-2.4169-1.9991-2.829l-9.007e-4 -3.171c0-0.55228-0.44772-1-1-1-0.51284 0-0.93551 0.38604-0.99327 0.88338l-0.0067277 0.11662 8.893e-5 3.1707c-1.1652 0.41181-2.0001 1.5231-2.0001 2.8293h-2c0-1.8531 1.0081-3.4707 2.5057-4.3344-0.31957-0.47552-0.50571-1.0488-0.50571-1.6656 0-1.6569 1.3431-3 3-3zm16 4v2h-8v-2zm0-4v2h-8v-2z"/>
</svg>
