<?xml version="1.0" encoding="UTF-8"?>
<svg display="block" fill="currentcolor" style="height:24px;width:24px" aria-hidden="true" focusable="false" role="presentation" viewBox="0 0 32 32" xmlns="http://www.w3.org/2000/svg">
<path d="M2.05 6.292L4 8.242V25a3 3 0 0 0 2.824 2.995L7 28h16.757l1.95 1.95c-.161.023-.325.038-.49.045L25 30H7a5 5 0 0 1-4.995-4.783L2 25V7c0-.24.017-.477.05-.708zm1.657-4l26 26-1.414 1.415-26-26 1.414-1.414zM25 2a5 5 0 0 1 4.995 4.783L30 7v18c0 .24-.017.476-.05.707L28 23.757V7a3 3 0 0 0-2.824-2.995L25 4H8.242l-1.95-1.95c.162-.023.325-.038.491-.045L7 2h18zM11.1 17a5.006 5.006 0 0 0 3.9 3.9v2.03A7.005 7.005 0 0 1 9.071 17h2.03zm5.9 4.243l1.352 1.352a6.954 6.954 0 0 1-1.351.334L17 21.243zM21.243 17l1.686.001c-.067.467-.18.919-.334 1.351L21.243 17zm-4.242-7.929A7.005 7.005 0 0 1 22.929 15H20.9A5.006 5.006 0 0 0 17 11.1l.001-2.029zm-7.596 4.577L10.757 15 9.071 15c.067-.467.18-.92.334-1.352zM15 9.071l-.001 1.686-1.35-1.352A6.954 6.954 0 0 1 15 9.07zM23 8a1 1 0 1 1 0 2 1 1 0 0 1 0-2z"/>
</svg>
