<?xml version="1.0" encoding="UTF-8"?>
<svg display="block" fill="currentcolor" style="height:24px;width:24px" aria-hidden="true" focusable="false" role="presentation" viewBox="0 0 32 32" xmlns="http://www.w3.org/2000/svg">
<path d="m16 20.333c2.025 0 3.6667 1.6416 3.6667 3.6667s-1.6416 3.6667-3.6667 3.6667-3.6667-1.6416-3.6667-3.6667 1.6416-3.6667 3.6667-3.6667zm0 2c-0.92048 0-1.6667 0.74619-1.6667 1.6667s0.74619 1.6667 1.6667 1.6667 1.6667-0.74619 1.6667-1.6667-0.74619-1.6667-1.6667-1.6667zm1e-4 -7.3332c3.5168 0 6.5625 2.0171 8.0432 4.9575l-1.5143 1.5127c-1.0142-2.6157-3.555-4.4702-6.5289-4.4702s-5.5147 1.8546-6.5289 4.4702l-1.5138-1.5137c1.4809-2.9399 4.5263-4.9565 8.0427-4.9565zm1e-4 -5.3332c4.9805 0 9.3676 2.5402 11.937 6.3957l-1.4471 1.4474c-2.1747-3.5073-6.0593-5.8431-10.489-5.8431s-8.3148 2.3358-10.489 5.8431l-1.4471-1.4474c2.569-3.8555 6.9561-6.3957 11.937-6.3957zm-2e-4 -5.3336c6.4511 0 12.177 3.106 15.763 7.9042l-1.4305 1.431c-3.2086-4.4434-8.4328-7.3352-14.332-7.3352-5.8991 0-11.123 2.8913-14.332 7.3342l-1.4305-1.431c3.5863-4.7976 9.3116-7.9032 15.762-7.9032z"/>
</svg>
