<?xml version="1.0" encoding="UTF-8"?>
<svg display="block" style="height:1em;width:1em" aria-hidden="true" focusable="false" role="presentation" viewBox="0 0 14 24" xmlns="http://www.w3.org/2000/svg">
<path d="m10.5 20.001c0 1.9327-1.567 3.4995-3.5 3.4995s-3.5-1.5668-3.5-3.4995c0-1.9327 1.567-3.5005 3.5-3.5005s3.5 1.5678 3.5 3.5005m-9.9949-18.588-0.0051375 8.1384c0 0.45796 0.21682 0.88993 0.58881 1.1709l5.0773 3.8317c0.48708 0.36797 1.1684 0.36797 1.6565 9.994e-4l5.0814-3.8267c0.37199-0.27898 0.58983-0.71094 0.59086-1.1679 0.0010271-1.7519 0.0041101-6.2105 0.0051391-8.1404 0-0.50396-0.42028-0.91293-0.93922-0.91293l-11.116-0.0069994c-0.5179-9.9942e-4 -0.93819 0.40797-0.93921 0.91293" fill="#fff"/>
<path d="m12 9.5-5-3.7012 5-3.7988zm-6.1292 9.1875c-0.52183 0.31808-0.87077 0.87625-0.87077 1.5144 0 0.99375 0.83703 1.7981 1.8702 1.7981 0.81807 0 1.5043-0.5065 1.7595-1.2095z" fill="#ffb400"/>
<path d="m12 9.5-5 3.75-5-3.75v-7.5z" fill="#ff5a5f"/>
<path d="m7 24c-2.2061 0-4-1.7939-4-3.999 0-2.2061 1.7939-4.001 4-4.001s4 1.7949 4 4.001c0 2.2051-1.7939 3.999-4 3.999zm0-7c-1.6543 0-3 1.3467-3 3.001 0 1.6533 1.3457 2.999 3 2.999s3-1.3457 3-2.999c0-1.6543-1.3457-3.001-3-3.001zm0.0039062-1.8242c-0.45605 0-0.91211-0.10645-1.2617-0.31641l-5.0459-3.8643c-0.46973-0.36426-0.69629-0.85254-0.69629-1.4951v-8c9.766e-4 -0.37305 0.16797-0.75293 0.45801-1.043 0.29004-0.29053 0.66895-0.45703 1.041-0.45703h11.001c0.78516 0 1.5 0.71484 1.5 1.5v7.9277c-9.766e-4 0.67627-0.24219 1.2178-0.69531 1.5669l-5.001 3.8325c-0.35059 0.2334-0.8252 0.34863-1.2998 0.34863zm-5.5059-14.176c-0.10449 0-0.23242 0.0625-0.33301 0.16357-0.10156 0.10205-0.16504 0.23096-0.16504 0.3374v7.999c0 0.33057 0.088867 0.53418 0.30664 0.70312l4.9971 3.8311c0.33301 0.19531 1.0859 0.2002 1.4209-0.020508l4.9717-3.8125c0.2002-0.1543 0.30273-0.41553 0.30371-0.7749v-7.9268c0-0.22852-0.27148-0.49951-0.5-0.49951h-11.001s0 0-9.765e-4 0z" fill="#484848"/>
</svg>
