<?xml version="1.0" encoding="UTF-8"?>
<svg display="block" fill="rgb(227, 28, 95)" stroke="currentcolor" style="height:24px;width:24px" aria-hidden="true" focusable="false" role="presentation" viewBox="0 0 48 48" xmlns="http://www.w3.org/2000/svg">
<g stroke="none">
<path d="m25 5 0.58468 0.0051748c4.2905 0.075749 8.8375 0.98334 13.645 2.7369l0.77037 0.28795v27.371l-0.0084766 0.13014c-0.039224 0.29942-0.21222 0.56563-0.46991 0.72308l-0.11548 0.0606-11.423 5.0774c0.062364-0.74585-0.043344-1.4943-0.32093-2.2784-0.24952-0.70445-0.76677-1.7805-1.0419-2.3951-1.9095-4.1562-3.959-8.3688-6.0913-12.521l-0.33176-0.63693c-0.46861-0.91158-0.82487-1.6298-1.3148-2.2052-0.7434-0.87373-1.7669-1.355-2.8822-1.355-1.1155 0-2.1391 0.48163-2.8829 1.3557-0.60503 0.71146-1.0306 1.6819-1.6458 2.8412-0.49568 0.96535-0.98686 1.9339-1.4728 2.9042l0.0015918-19.072 0.76909-0.28648c4.7984-1.7504 9.3373-2.658 13.621-2.7369z" fill-opacity=".2"/>
<path d="m25 1c5.5985 0 11.518 1.2747 17.755 3.8164 0.70274 0.28642 1.1784 0.9433 1.2387 1.6907l0.0064946 0.16143v28.732c0 1.8999-1.0759 3.6285-2.7638 4.4721l-0.20546 0.096936-15.043 6.6857c-0.46142 0.20508-1.8621 0.32766-2.7956 0.3431l-0.19236 0.0016581 9.065e-4 -1.0005c0.64837-0.0069073 1.2843-0.13304 1.8784-0.37478 0.83278-0.33887 1.5458-0.894 2.0791-1.5886l13.26-5.8942c1.0232-0.45475 1.7028-1.4383 1.7752-2.545l0.0064111-0.19648v-28.732l-0.6917-0.27705c-5.7517-2.2633-11.187-3.3915-16.308-3.3915-5.1211 0-10.557 1.1282-16.308 3.3915l-0.69171 0.27707-3.0284e-4 24.494c-0.68068 1.4079-1.3483 2.8152-2.0008 4.2173l0.0011344-28.711c0-0.81312 0.49225-1.5453 1.2453-1.8522 6.2373-2.5417 12.156-3.8164 17.755-3.8164z"/>
</g>
<path d="m16 41.693 0.68673-0.88518c1.5957-2.0329 2.592-3.8874 2.9613-5.5119 0.28043-1.2319 0.23185-2.5167-0.48045-3.5592-0.6801-0.9952-1.8642-1.5894-3.1674-1.5894-1.3033 0-2.4876 0.59406-3.1676 1.5891-0.70991 1.0391-0.7618 2.3201-0.481 3.5581 0.36894 1.6247 1.3654 3.4796 2.9616 5.5134l0.68673 0.88518 0.64477 0.71922c1.1495 1.2599 2.1735 2.1226 3.2228 2.715 0.81516 0.46022 1.6401 0.74137 2.4521 0.83589 0.88122 0.10338 1.7586-0.012368 2.5598-0.33838 1.6423-0.66827 2.8187-2.1776 3.07-3.9387 0.12053-0.84383 0.026498-1.6854-0.28761-2.5726-0.24952-0.70445-0.76677-1.7805-1.0419-2.3951-1.9095-4.1562-3.959-8.3688-6.0913-12.521-0.64864-1.2223-1.0478-2.1388-1.6465-2.8422-0.7434-0.87373-1.7669-1.355-2.8822-1.355-1.1155 0-2.1391 0.48163-2.8829 1.3557-0.60503 0.71146-1.0306 1.6819-1.6458 2.8412-2.1327 4.1534-4.182 8.3661-6.0913 12.521-0.28227 0.63061-0.79308 1.6934-1.0417 2.3949-0.31411 0.88721-0.40813 1.7288-0.28761 2.5732 0.25117 1.7609 1.4274 3.2701 3.0697 3.9385 0.8194 0.3334 1.6942 0.43973 2.5596 0.33856 0.81296-0.094887 1.6381-0.37604 2.4525-0.83607 1.0492-0.59221 2.0732-1.4551 3.2228-2.715z" fill="none" stroke-width="2"/>
</svg>
