<?xml version="1.0" encoding="UTF-8"?>
<svg display="block" fill="white" style="height:16px;width:16px" aria-hidden="true" focusable="false" role="presentation" viewBox="0 0 16 16" xmlns="http://www.w3.org/2000/svg">
<path d="m4.504 1.0074c-.2305-.134-.5-.171-.7585-.103-.2136.05621-.4026.18157-.5375.35651-.1348.17494-.208.3896-.208.61049v12.2595c.0003.1758.0468.3485.135.5006s.2149.2783.3674.3659c.1524.0876.3253.1335.5011.1331052.1759-.0005052.3485-.0472052.5005-.1356052l10.5075-6.13c.1505-.0884.2753-.2145.362-.3659.0867-.1515.1324002-.3229.1324002-.4975 0-.1745-.0455002-.346-.1321002-.4975-.0866-.1514-.2114-.2777-.3618-.3661z"/>
</svg>
